<svg width="40" height="41" viewBox="0 0 40 41" fill="none" xmlns="http://www.w3.org/2000/svg">
<path d="M31.4478 32.1705C32.2007 32.1705 32.8135 32.2705 33.2853 32.4813C33.7671 32.682 34.1181 32.9035 34.359 33.1343L33.6266 34.5296C33.4057 34.3389 33.094 34.1684 32.7225 34.0178C32.351 33.8672 31.9594 33.7766 31.5478 33.7766C31.2567 33.7766 31.0155 33.8471 30.8448 33.9776C30.6742 34.1181 30.5938 34.2688 30.5938 34.4394C30.5938 34.6603 30.6947 34.8308 30.9056 34.9513C31.1064 35.0717 31.3672 35.1727 31.6684 35.2631C31.9696 35.3534 32.3211 35.4539 32.6725 35.5543C33.0339 35.6547 33.3754 35.7954 33.6766 35.9661C33.9776 36.1367 34.2387 36.3571 34.4394 36.628C34.6402 36.8991 34.7512 37.2614 34.7512 37.7232C34.7512 38.4861 34.4799 39.0887 33.9178 39.5304C33.3555 39.9722 32.6022 40.1932 31.6684 40.1932C31.307 40.1932 30.9655 40.1424 30.6242 40.052C30.2828 39.9617 29.9613 39.8619 29.6701 39.7314C29.379 39.6009 29.1279 39.4603 28.917 39.3098C28.7163 39.1592 28.5562 38.998 28.4758 38.8675L29.4289 37.5928C29.5493 37.7132 29.7001 37.8333 29.8907 37.9537C30.0815 38.0742 30.2827 38.1751 30.5035 38.2655C30.7244 38.3458 30.9455 38.4153 31.1664 38.4655C31.3873 38.5157 31.5885 38.5361 31.7792 38.5361C32.0702 38.536 32.3114 38.4663 32.4921 38.3459C32.6827 38.2255 32.7832 38.0344 32.7833 37.8036L32.7617 37.8713C32.761 37.6715 32.6619 37.5011 32.4519 37.381C32.2511 37.2606 31.9893 37.1606 31.688 37.0702C31.3869 36.9799 31.0558 36.8793 30.7046 36.779C30.3431 36.6786 30.0213 36.5381 29.7201 36.3574C29.419 36.1766 29.158 35.9356 28.9572 35.6445C28.7564 35.3533 28.6464 34.9817 28.6464 34.5198C28.6464 34.1484 28.7169 33.8069 28.8474 33.5158C28.988 33.2247 29.1887 32.9841 29.4397 32.7833C29.6906 32.5826 30.0015 32.4219 30.3427 32.3215C30.6841 32.2211 31.0562 32.1705 31.4478 32.1705Z" fill="#ADACAC"/>
<path fill-rule="evenodd" clip-rule="evenodd" d="M13.706 32.0901C14.3384 32.0901 14.9207 32.1911 15.4327 32.4019C15.9445 32.6026 16.3863 32.8831 16.7476 33.2343C17.1091 33.5958 17.4008 34.018 17.6016 34.51C17.8024 35.0019 17.9124 35.534 17.9125 36.1161C17.9125 36.6985 17.8125 37.2212 17.6016 37.7232C17.4009 38.2151 17.1195 38.6466 16.7682 38.9979C16.4067 39.3594 15.9644 39.6306 15.4523 39.8314C14.9403 40.0322 14.3578 40.1432 13.7354 40.1432C13.113 40.1432 12.5206 40.0422 12.0086 39.8314C11.4968 39.6307 11.0551 39.3396 10.6937 38.9783C10.3323 38.6169 10.0611 38.1947 9.86029 37.7027C9.65951 37.2107 9.5485 36.6788 9.54848 36.0965L9.51906 36.1269L9.49847 36.1367C9.49847 35.5544 9.59844 35.0317 9.8093 34.5296C10.0101 34.0377 10.3019 33.6063 10.6633 33.2549C11.0247 32.8936 11.4664 32.6027 11.9782 32.4019C12.4903 32.2011 13.0734 32.0901 13.706 32.0901ZM13.6756 33.9776C13.3944 33.9776 13.113 34.0282 12.8519 34.1286C12.601 34.229 12.3697 34.3696 12.1891 34.5502C11.9985 34.7409 11.8482 34.9618 11.7478 35.2327C11.6474 35.5038 11.5968 35.8154 11.5968 36.1367H11.5566C11.5567 36.7893 11.7573 37.3116 12.1489 37.7232C12.5405 38.1349 13.0329 38.3351 13.6354 38.3351C14.2378 38.3351 14.7597 38.1344 15.1513 37.7429C15.5428 37.3513 15.7435 36.819 15.7435 36.1563C15.7435 35.8351 15.6939 35.5439 15.5935 35.2729C15.4931 35.0018 15.342 34.7606 15.1513 34.5698C14.9606 34.3792 14.7393 34.229 14.4884 34.1286C14.2375 34.0283 13.9566 33.9776 13.6756 33.9776Z" fill="#ADACAC"/>
<path d="M7.54034 39.9314H5.5822V32.2607H7.54034V39.9314Z" fill="#ADACAC"/>
<path d="M23.7359 32.1401C24.1877 32.1401 24.62 32.1902 25.0116 32.3107C25.4031 32.4312 25.7445 32.6225 26.0156 32.8735C26.2866 33.1244 26.5071 33.4657 26.6677 33.8972C26.8183 34.3189 26.9089 34.8312 26.9089 35.4337V39.9314H24.9508V35.7749C24.9507 35.1625 24.8002 34.7002 24.4889 34.409C24.1777 34.1181 23.7561 33.9678 23.2142 33.9678C22.8929 33.9678 22.5813 34.0383 22.3102 34.1688C22.0392 34.3093 21.7779 34.4795 21.5571 34.7002V39.9314H19.599V32.2607L21.5473 32.2813H21.5375V33.0441C21.7584 32.7931 22.0696 32.5618 22.4612 32.3911C22.8526 32.2205 23.2842 32.1401 23.7359 32.1401Z" fill="#ADACAC"/>
<path d="M32.7627 37.8733L32.7529 37.9037L32.7617 37.8713L32.7627 37.8733Z" fill="#ADACAC"/>
<path d="M6.58627 28.3552C6.87738 28.3552 7.1288 28.4553 7.36972 28.666C7.61067 28.8668 7.73152 29.1481 7.73154 29.4995C7.73154 29.8911 7.6107 30.2027 7.36972 30.4035C7.12882 30.6042 6.87736 30.7144 6.58627 30.7144C6.26519 30.7143 5.97405 30.6142 5.7332 30.4035C5.49223 30.2027 5.37139 29.8911 5.37139 29.4995C5.37141 29.1381 5.49225 28.8668 5.7332 28.666C5.97406 28.4653 6.26517 28.3553 6.58627 28.3552Z" fill="#ADACAC"/>
<path d="M30.2525 21.6875V21.7581L26.9589 25.6136L25.6342 24.5095V24.4997L27.9836 21.7179L25.6136 18.9773L26.8893 17.8321L30.2525 21.6875Z" fill="#ADACAC"/>
<path d="M33.8276 21.6875V21.7581L30.5339 25.6136L29.2083 24.5095V24.4997L31.5576 21.7179L29.1886 18.9773L30.4633 17.8321L33.8276 21.6875Z" fill="#ADACAC"/>
<path d="M10.3819 18.9773L8.01295 21.7179L10.3623 24.4997L9.03664 25.6038L5.74301 21.7483V21.6875L9.10723 17.8321L10.3819 18.9773Z" fill="#ADACAC"/>
<path d="M13.9668 18.9773L11.5968 21.7179L13.9462 24.4997L12.6215 25.6038L9.32786 21.7483V21.6875L12.6911 17.8321L13.9668 18.9773Z" fill="#ADACAC"/>
<path d="M23.4447 22.2298H16.1249V20.5236H23.4447V22.2298Z" fill="#ADACAC"/>
<path d="M28.7562 9.10723C28.7563 9.5288 28.8069 9.83994 28.9072 10.0407C29.0076 10.2415 29.1786 10.3515 29.3995 10.3515C29.55 10.3515 29.6909 10.3223 29.8113 10.2721C29.9316 10.2219 30.0518 10.1513 30.1721 10.0711L30.584 11.5674C30.3631 11.758 30.0922 11.9088 29.7711 12.0292C29.4499 12.1497 29.0581 12.2194 28.5964 12.2195C28.004 12.2195 27.5513 12.0291 27.2501 11.6576C26.9489 11.2861 26.7883 10.7033 26.7883 9.9201V0.100015H28.7562V9.10723Z" fill="#ADACAC"/>
<path d="M3.74565 0C4.30772 4.46747e-05 4.79955 0.0803826 5.23117 0.251018C5.65288 0.42171 6.01466 0.662883 6.30584 0.954063C6.59689 1.24518 6.79775 1.56688 6.93828 1.94833C7.07872 2.31966 7.13928 2.71104 7.1393 3.10242C7.1393 3.66458 7.05889 4.20689 6.88828 4.73894C6.71759 5.2711 6.49602 5.78392 6.20484 6.25583C5.91378 6.72754 5.61261 7.18916 5.27137 7.62074C4.92999 8.04245 4.5886 8.42462 4.2673 8.76601C3.94608 9.10728 3.63474 9.39852 3.34363 9.64947C3.05252 9.90043 2.83138 10.0908 2.68079 10.2113H7.64133V12.039H0.140217V10.4721L0.0196108 10.5025L0 10.4927C0.491987 10.0108 1.02377 9.4881 1.60612 8.92583C2.18845 8.36358 2.73105 7.77159 3.22303 7.1491C3.71498 6.53667 4.14655 5.92401 4.48792 5.31157C4.82931 4.69909 5.00074 4.09637 5.00074 3.52405C5.0007 3.04221 4.8801 2.67043 4.62912 2.39938C4.37814 2.12833 3.99631 1.98858 3.50444 1.98853C3.0828 1.98853 2.72093 2.12836 2.42977 2.39938C2.13865 2.67042 1.93743 3.06214 1.81694 3.57406L0.180419 2.8416C0.33102 1.96811 0.72261 1.27492 1.3551 0.762858C1.98767 0.250782 2.79179 0 3.74565 0Z" fill="#ADACAC"/>
<path d="M17.5212 4.1565C18.1135 4.15653 18.6157 4.27737 18.9871 4.51832C19.3585 4.75925 19.6195 5.05045 19.75 5.40178C20.0211 5.04037 20.3824 4.749 20.8041 4.52812C21.2258 4.30723 21.7381 4.1869 22.3406 4.1869C22.702 4.1869 23.0231 4.23753 23.3142 4.3379C23.6054 4.43831 23.8572 4.58841 24.0781 4.81934C24.2989 5.05025 24.4695 5.33161 24.5899 5.693C24.7104 6.05447 24.7801 6.49657 24.7801 7.01869V12.0292L22.8328 11.9488V7.45013C22.8328 6.96822 22.7318 6.61689 22.521 6.35585C22.3202 6.1049 21.9787 5.98422 21.5169 5.98422C21.1557 5.98427 20.8348 6.06475 20.5638 6.23524C20.2928 6.40589 20.0815 6.60672 19.951 6.86769V11.9488H17.9929V7.30991C17.9929 6.91832 17.8921 6.59682 17.6713 6.35585C17.4504 6.11498 17.1292 5.99403 16.6976 5.99403C16.3363 5.99404 16.0351 6.06458 15.7641 6.19504C15.4931 6.33557 15.2719 6.53635 15.1013 6.78728V11.938H13.1431V4.2673H15.1013V5.12037C15.3723 4.80923 15.7337 4.57816 16.1553 4.40752C16.577 4.23682 17.0393 4.1565 17.5212 4.1565Z" fill="#ADACAC"/>
<path d="M36.0161 4.2369C36.4678 4.23691 36.8994 4.28713 37.2908 4.40752C37.6824 4.52799 38.0238 4.71936 38.2949 4.97035C38.566 5.22132 38.7873 5.56237 38.9479 5.99403C39.0985 6.41574 39.1892 6.92809 39.1892 7.53053V12.0283H37.231V7.87176C37.231 7.25934 37.0804 6.79703 36.7692 6.50587C36.4579 6.2148 36.0356 6.06463 35.4935 6.06463C35.1724 6.06468 34.8614 6.13518 34.5904 6.26564C34.3195 6.40614 34.0582 6.57635 33.8374 6.79709V12.0283H31.8792V4.35751L33.8276 4.3781H33.8168V5.14096C34.0376 4.88999 34.349 4.6586 34.7405 4.48792C35.132 4.31723 35.5643 4.2369 36.0161 4.2369Z" fill="#ADACAC"/>
<path d="M28.767 0.100015H28.7562V0.0902095L28.767 0.100015Z" fill="#ADACAC"/>
</svg>
