<svg width="56" height="43" viewBox="0 0 56 43" fill="none" xmlns="http://www.w3.org/2000/svg">
<path d="M33.9472 20.2991C34.1437 20.104 34.4617 20.1051 34.6571 20.3011C34.8524 20.4976 34.8514 20.8155 34.6551 21.011L33.0039 22.6534L32.9245 22.7171C32.7294 22.845 32.465 22.8231 32.294 22.6514C32.0988 22.4547 32.0994 22.1359 32.296 21.9405L33.9472 20.2991Z" fill="#ADACAC"/>
<path fill-rule="evenodd" clip-rule="evenodd" d="M1.97971 0.00980538C4.13026 0.363609 5.71296 1.60872 7.00006 2.8112C7.32293 3.11285 7.63394 3.4174 7.92863 3.70643C8.22598 3.99808 8.50705 4.27346 8.78366 4.52812C9.27396 4.97951 9.7167 5.33586 10.1466 5.57436L11.9194 5.4008C11.9582 5.3946 11.9979 5.39103 12.0381 5.391H53.1049L53.1883 5.3959C53.3797 5.41722 53.5574 5.5114 53.6825 5.66064C54.1901 6.26728 54.5442 7.18322 54.7983 8.11689C55.0591 9.075 55.2406 10.153 55.3533 11.1615C55.466 12.1697 55.5129 13.1328 55.4975 13.8668C55.4898 14.2294 55.4661 14.5607 55.421 14.8218C55.3991 14.9486 55.3658 15.0934 55.3112 15.2268C55.2836 15.2938 55.2404 15.3838 55.1719 15.4729C55.1217 15.5381 55.0404 15.6267 54.9199 15.6964L54.7856 15.7582C54.7097 15.7855 54.6299 15.8013 54.5493 15.8033L38.0939 16.2034L38.0949 16.2044C37.7753 16.2134 37.5323 16.4667 37.532 16.777V16.7809L37.5271 17.6909H38.2655C38.5426 17.6909 38.7673 17.9158 38.7675 18.1929C38.7675 18.4702 38.5428 18.6949 38.2655 18.6949H37.5222L37.4958 24.2575H37.8125L37.9135 24.2673C38.1422 24.314 38.3143 24.5171 38.3145 24.7596C38.3145 25.0022 38.1423 25.205 37.9135 25.2518L37.8125 25.2616H37.4909L37.4114 41.5209C37.4103 41.7599 37.2956 41.9848 37.1026 42.1259C36.8824 42.2866 36.6091 42.3866 36.3642 42.4553C36.1051 42.528 35.8089 42.5844 35.4984 42.6269C34.8765 42.712 34.1427 42.7504 33.4197 42.7485C32.6962 42.7465 31.9613 42.7039 31.338 42.6181C31.0269 42.5753 30.7308 42.5195 30.4722 42.4494C30.2269 42.3829 29.9582 42.2882 29.7407 42.1415C29.5336 42.0016 29.4094 41.7679 29.4093 41.5179V16.727C29.409 16.4167 29.1556 16.1534 28.8357 16.1446L12.1371 15.8053C12.1067 15.8089 12.0762 15.8143 12.0449 15.8141L11.9684 15.8102L10.179 15.616C9.89658 15.8137 9.51846 16.1537 9.02879 16.625C8.45814 17.1743 7.76818 17.8685 7.0383 18.5243C6.30491 19.1833 5.49253 19.8396 4.63794 20.3334C3.83936 20.7948 2.95975 21.1403 2.04148 21.1816L1.85714 21.1855L1.73163 21.1757L1.01878 21.0551L1.01584 21.0541C0.428165 20.9519 0.000203668 20.4507 0 19.85V1.23548C0 0.660472 0.420846 0.148252 1.02466 0.0853068L1.77771 0.00392215L1.87871 0C1.91247 0.000955722 1.94631 0.00431567 1.97971 0.00980538ZM12.6166 6.8971C12.3304 8.12189 12.2211 9.6868 12.2489 11.1517C12.2647 11.9869 12.325 12.7696 12.4146 13.4118C12.4656 13.7775 12.5252 14.077 12.5832 14.307L28.8719 14.6384H28.8778L29.0857 14.6551C30.1135 14.7862 30.9152 15.6627 30.9154 16.727V23.4447C31.0701 23.419 31.2346 23.4653 31.3537 23.5849C31.5376 23.77 31.5456 24.0608 31.3821 24.2575H31.6998C31.9769 24.2575 32.2016 24.4825 32.2018 24.7596C32.2018 25.0368 31.9771 25.2616 31.6998 25.2616H30.9154V41.0071C31.0852 41.0503 31.2968 41.0917 31.5439 41.1257C32.0854 41.2002 32.7504 41.2406 33.4236 41.2424C34.0971 41.2442 34.759 41.2078 35.2945 41.1345C35.5376 41.1012 35.7432 41.0588 35.9073 41.0159L35.9848 25.2616H34.7561C34.479 25.2615 34.2541 25.0367 34.2541 24.7596C34.2543 24.4826 34.4791 24.2576 34.7561 24.2575H35.9897L36.0122 19.5098C35.8643 19.5272 35.7106 19.4813 35.5974 19.3676C35.4022 19.1709 35.4028 18.8531 35.5994 18.6577L36.0181 18.24L36.0259 16.7731C36.0283 15.6402 36.9285 14.7308 38.0527 14.6992H38.0556L53.9659 14.31C53.977 14.1792 53.9874 14.0199 53.9913 13.8344C54.0051 13.1798 53.9629 12.2846 53.856 11.3282C53.7491 10.3716 53.5798 9.37503 53.3452 8.51303C53.1564 7.81955 52.9389 7.26974 52.7147 6.8971H12.6166ZM1.50611 1.54729V19.6088L1.90518 19.6764C2.51361 19.665 3.1759 19.4393 3.88391 19.0303C4.60758 18.6121 5.33135 18.0333 6.03227 17.4036C6.73669 16.7706 7.3809 16.1206 7.98452 15.5396C8.55419 14.9912 9.13493 14.4553 9.63869 14.1796L9.7436 14.1325C9.851 14.0935 9.96631 14.079 10.0809 14.0913L11.0163 14.1913C10.9816 14.0075 10.9495 13.8156 10.9222 13.6197C10.823 12.9084 10.7605 12.0648 10.7438 11.1801C10.718 9.81836 10.8017 8.30787 11.0556 6.9981L10.074 7.09517C9.9369 7.10862 9.79819 7.08424 9.67399 7.02457C8.98129 6.69146 8.35179 6.17735 7.7639 5.63613C7.46711 5.36288 7.16874 5.07159 6.87357 4.78208C6.57579 4.49002 6.27937 4.19811 5.97246 3.91136C4.76173 2.78023 3.4773 1.81167 1.82674 1.51297L1.50611 1.54729Z" fill="#ADACAC"/>
<path d="M49.6515 33.0333L47.6414 32.5921C46.3817 35.1371 43.9185 36.7681 40.4942 36.7682C40.217 36.7682 39.9922 36.5434 39.9922 36.2662C39.9924 35.9891 40.2171 35.7641 40.4942 35.7641C43.4385 35.7641 45.5083 34.4398 46.6265 32.3695L44.6606 31.9391L48.1052 28.1738L49.6515 33.0333Z" fill="#ADACAC"/>
<path d="M43.9251 24.2575C44.2021 24.2577 44.427 24.4826 44.4272 24.7596C44.4272 25.0367 44.2022 25.2614 43.9251 25.2616H40.8688C40.5916 25.2616 40.3668 25.0368 40.3668 24.7596C40.367 24.4825 40.5917 24.2575 40.8688 24.2575H43.9251Z" fill="#ADACAC"/>
<path d="M50.0368 24.2575C50.314 24.2575 50.5386 24.4825 50.5389 24.7596C50.5389 25.0368 50.3141 25.2616 50.0368 25.2616H46.9805C46.7034 25.2614 46.4785 25.0367 46.4785 24.7596C46.4787 24.4826 46.7036 24.2577 46.9805 24.2575H50.0368Z" fill="#ADACAC"/>
<path d="M55.2445 22.6867C55.5191 22.7237 55.7117 22.9769 55.6749 23.2515L55.6259 23.578C55.5723 23.8964 55.5052 24.1886 55.4239 24.4291C55.3702 24.5879 55.3029 24.7461 55.216 24.8792C55.1464 24.9857 55.0278 25.1328 54.8425 25.2126L54.7591 25.242C54.7143 25.2548 54.6675 25.2616 54.6209 25.2616H53.0932C52.8159 25.2616 52.5912 25.0368 52.5911 24.7596C52.5914 24.4825 52.8161 24.2575 53.0932 24.2575H54.414C54.4312 24.22 54.4515 24.1705 54.4728 24.1075C54.5519 23.8734 54.6247 23.5325 54.6807 23.1172L54.7042 23.0181C54.7813 22.7981 55.0044 22.6545 55.2445 22.6867Z" fill="#ADACAC"/>
<path d="M54.7346 17.7036C54.7716 17.7122 54.8081 17.725 54.8425 17.7418C55.1819 17.9083 55.3613 18.2692 55.4661 18.5596C55.5529 18.8004 55.6186 19.0825 55.6681 19.3842L55.7122 19.6912L55.7151 19.7931C55.697 20.0258 55.5174 20.2219 55.2768 20.252C55.036 20.282 54.8132 20.136 54.7385 19.9147L54.716 19.8157L54.6767 19.5431C54.6342 19.2844 54.582 19.0667 54.5218 18.8999C54.485 18.7979 54.4504 18.7341 54.4267 18.6949H53.1344C52.8571 18.6949 52.6323 18.4702 52.6323 18.1929C52.6326 17.9158 52.8573 17.6909 53.1344 17.6909H54.6209L54.7346 17.7036Z" fill="#ADACAC"/>
<path d="M44.2134 17.6909C44.4905 17.691 44.7152 17.9159 44.7155 18.1929C44.7155 18.4701 44.4906 18.6948 44.2134 18.6949H41.2395C40.9622 18.6949 40.7374 18.4701 40.7374 18.1929C40.7377 17.9158 40.9624 17.6909 41.2395 17.6909H44.2134Z" fill="#ADACAC"/>
<path d="M50.1604 17.6909C50.4375 17.6909 50.6622 17.9158 50.6624 18.1929C50.6624 18.4702 50.4377 18.6949 50.1604 18.6949H47.1874C46.9101 18.6949 46.6854 18.4702 46.6854 18.1929C46.6856 17.9158 46.9103 17.6909 47.1874 17.6909H50.1604Z" fill="#ADACAC"/>
</svg>
