<svg width="65" height="55" viewBox="0 0 65 55" fill="none" xmlns="http://www.w3.org/2000/svg">
<path fill-rule="evenodd" clip-rule="evenodd" d="M62.9187 20.0087C60.9879 27.3276 57.4084 33.5746 52.1487 38.8052C50.8273 40.1191 47.0555 43.1183 45.7056 43.9284C45.0056 44.3484 44.9726 44.3525 40.224 44.599C37.5964 44.7355 35.441 44.8887 35.4342 44.9397C35.4151 45.0819 36.5952 45.6013 37.4327 45.8193C38.5833 46.1189 38.9003 46.4032 38.8174 47.0615C38.6297 48.5498 33.6665 51.4122 29.8145 52.2538C27.5262 52.7537 25.9275 52.8183 23.1521 52.5229C20.3512 52.2247 20.0452 52.1227 19.8109 51.4078C19.6536 50.928 19.9632 50.2497 20.4173 50.0794C20.6094 50.0074 21.3796 50.0591 22.4237 50.2144C26.8416 50.8711 31.1493 50.0638 34.5993 47.9323L35.2724 47.5163L34.5873 47.1001C33.6039 46.5024 32.336 45.2762 32.0086 44.6062C31.6546 43.8815 31.7733 43.2341 32.3149 42.9359C32.5859 42.7866 34.4063 42.6398 38.6569 42.4242L44.6187 42.1218L46.5452 40.6329C47.6049 39.814 48.4517 39.118 48.4273 39.0863C48.4029 39.0545 47.9083 39.0683 47.328 39.1169C45.9234 39.2346 43.1001 38.9795 42.3536 38.6673C42.0375 38.5351 41.6733 38.2898 41.5444 38.1222C41.2462 37.7342 41.3274 37.1024 41.7238 36.7276C42.0225 36.445 42.0961 36.4445 44.1586 36.7079C46.831 37.0493 48.2441 36.9275 50.441 36.1662L51.9612 35.6392L53.0013 34.4408C54.02 33.2668 56.5768 29.7102 56.4173 29.6892C56.3728 29.6833 55.956 29.8093 55.4911 29.9694C54.3585 30.3591 53.6933 30.4699 52.9866 30.3865C52.5141 30.3306 52.3438 30.2352 52.1272 29.9048C51.5563 29.0339 52.1174 28.3071 53.5131 28.1092C55.1728 27.8739 57.2618 26.9294 58.258 25.9641C58.5311 25.6992 58.8697 25.0704 59.2319 24.155C61.7517 17.7862 62.3804 10.9414 61.0502 4.35653C60.8897 3.56189 60.7288 2.79984 60.6926 2.66301C60.6322 2.43353 60.5577 2.43044 59.7309 2.62379C57.4289 3.16217 54.2751 4.40725 52.1206 5.6283C50.8271 6.36141 50.3108 6.43662 49.797 5.96625C49.4561 5.6543 49.3881 5.05174 49.6452 4.62054C50.0215 3.9895 53.7512 2.13628 56.4922 1.21844C58.6445 0.497708 61.0689 -0.0706202 61.6581 0.00725162C62.179 0.0760944 62.4985 0.562684 62.8232 1.78219C63.5158 4.383 63.9601 7.55567 64.0367 10.4465C64.0898 12.4544 63.4358 18.0487 62.9187 20.0087ZM51.6574 20.5568C50.6359 21.9127 45.6989 27.0605 43.0433 29.5388C31.6554 40.1662 18.4833 48.4049 3.90337 54.0197C2.46386 54.574 1.13048 55.007 0.940076 54.9818C0.344063 54.903 -0.0709696 54.3446 0.0101482 53.7308C0.0966727 53.0761 0.360057 52.9118 2.69918 52.0541C4.93474 51.2342 7.80232 50.035 10.3107 48.871C11.4673 48.3342 12.4344 47.8796 12.4597 47.8604C12.4852 47.8415 12.4014 47.1699 12.2736 46.368C11.6193 42.2644 12.3024 37.6631 14.1187 33.938C14.6754 32.7961 15.0126 32.5139 15.7099 32.606C16.1944 32.6701 16.4671 32.999 16.8885 34.0274C17.1625 34.6966 17.7806 35.575 17.8073 35.3334C17.8152 35.263 17.7971 34.6959 17.7673 34.0732C17.6313 31.2296 18.4376 28.5998 20.0584 26.6014C21.7082 24.5672 32.0878 15.3999 32.9784 15.1904C33.4687 15.0751 34.2148 15.5266 34.2451 15.9568C34.2578 16.1376 34.2321 16.8272 34.1882 17.4892C34.1063 18.7189 34.2894 20.2323 34.6395 21.2213C34.7472 21.5255 34.8512 21.7766 34.8708 21.7792C34.8902 21.7817 34.9685 21.1237 35.0448 20.3169C35.3835 16.7356 36.6749 13.6646 38.719 11.5793C40.1763 10.093 43.4526 7.90761 45.4713 7.07556C46.0387 6.84174 46.483 7.04475 46.7885 7.67714C46.9714 8.05582 46.9535 8.12054 46.2538 9.61669C45.0985 12.0872 44.842 12.989 44.4643 15.9066L44.1293 18.4952L43.7353 18.7282C43.222 19.0316 42.7778 18.9626 42.3816 18.5179C42.1322 18.2381 42.0598 17.9583 42.0515 17.2439C42.0366 15.9597 42.3727 13.637 42.7704 12.2765C42.9553 11.6435 43.0909 11.1012 43.0719 11.0714C42.9958 10.9526 41.5656 11.9552 40.8182 12.6513C38.0969 15.1859 37.0282 18.7071 37.2426 24.4333C37.2867 25.6116 37.2664 25.7608 37.013 26.1236C36.4774 26.8902 35.7567 26.7245 34.7166 25.5954C33.3652 24.1281 32.1919 21.6604 31.9853 19.851C31.9449 19.4976 31.8948 19.122 31.8738 19.0163C31.8307 18.7985 31.2847 19.2389 28.3045 21.8957C25.5438 24.357 22.6129 27.1169 21.9566 27.8733C21.2475 28.6906 20.4821 30.2673 20.2154 31.4604C19.9333 32.7226 19.9899 34.8575 20.3588 36.8609C20.6223 38.2918 20.629 38.5021 20.4223 38.818C20.2949 39.0128 20.0068 39.2319 19.7821 39.305C19.4355 39.4177 19.279 39.3918 18.7486 39.1333C17.8629 38.7018 16.9406 37.9685 16.2086 37.1139C15.8619 36.7094 15.5419 36.4226 15.4977 36.4768C15.0502 37.0241 14.3072 40.8329 14.2871 42.6835C14.2716 44.1049 14.4727 46.3535 14.6354 46.5788C14.7568 46.747 18.0128 45.0134 21.3675 42.9943C31.4069 36.9522 40.9064 29.1678 48.341 20.8912C50.0446 18.9946 50.4709 18.6378 50.9567 18.702C51.3856 18.7587 52.0476 19.5385 51.9887 19.9174C51.9671 20.0559 51.8181 20.3436 51.6574 20.5568Z" fill="#726965"/>
</svg>
