<svg width="37" height="48" viewBox="0 0 37 48" fill="none" xmlns="http://www.w3.org/2000/svg">
<g clip-path="url(#clip0_32021_484)">
<path fill-rule="evenodd" clip-rule="evenodd" d="M15.0113 41.7213C15.7905 41.7214 16.2245 42.1357 16.4217 42.5007H16.441L16.4805 41.8196H17.2002C17.1806 42.1427 17.1616 42.5059 17.1616 43.0527V45.677C17.1616 46.7128 16.9541 47.344 16.52 47.7386C16.0859 48.1529 15.4447 48.281 14.8726 48.281C14.3005 48.281 13.7385 48.1529 13.3736 47.9063L13.5807 47.2849C13.8767 47.4723 14.3501 47.6404 14.9025 47.6404C15.741 47.6404 16.363 47.2057 16.363 46.0614V45.5585H16.3427C16.0862 45.9827 15.6029 46.3186 14.9025 46.3186C13.7877 46.3186 12.9786 45.3711 12.9786 44.1182C12.9786 42.5892 13.9755 41.7213 15.0113 41.7213ZM15.1587 42.3427C14.3796 42.3428 13.8178 43.0035 13.8177 44.0489C13.8177 44.9367 14.2613 45.677 15.1491 45.677C15.6522 45.677 16.1064 45.3616 16.284 44.8388C16.3333 44.7007 16.3524 44.5425 16.3524 44.4044V43.5855C16.3524 43.4474 16.3526 43.3291 16.3032 43.2107C16.1553 42.7372 15.7506 42.3427 15.1587 42.3427Z" fill="#ADACAC"/>
<path fill-rule="evenodd" clip-rule="evenodd" d="M2.28495 41.7117C3.37986 41.7117 4.19903 42.6384 4.19921 44.0094C4.19921 45.637 3.21251 46.437 2.14719 46.4371C1.54542 46.4371 1.02241 46.1799 0.756053 45.7261H0.735822V48.1828H-0.0724623V43.2897L-0.0830596 43.2801C-0.0830596 42.698 -0.102829 42.2341 -0.122559 41.8099H0.618288L0.656824 42.5893H0.677055C1.01246 42.0369 1.5451 41.7117 2.28495 41.7117ZM2.02869 42.3523C1.46638 42.3523 0.94376 42.7571 0.785918 43.3687C0.756326 43.4674 0.726193 43.5955 0.726188 43.704V44.4834C0.726189 44.6017 0.745968 44.72 0.765687 44.8186C0.913656 45.3908 1.40696 45.7752 1.99883 45.7753C2.86694 45.7753 3.36972 45.0654 3.36973 44.0296C3.36973 43.1221 2.89671 42.3524 2.02869 42.3523Z" fill="#ADACAC"/>
<path fill-rule="evenodd" clip-rule="evenodd" d="M10.098 41.7011C11.3509 41.7011 12.2686 42.6485 12.2686 44.0296C12.2685 45.6968 11.1141 46.4265 10.019 46.4265C8.79598 46.4264 7.85928 45.5291 7.85913 44.099C7.85913 42.5897 8.84524 41.7011 10.098 41.7011ZM10.0788 42.3225C9.11205 42.3225 8.68769 43.2205 8.68764 44.0787C8.68764 45.0652 9.25956 45.8147 10.0585 45.8148C10.8575 45.8148 11.4303 45.0754 11.4304 44.0595C11.4304 43.2901 11.0453 42.3227 10.0788 42.3225Z" fill="#ADACAC"/>
<path fill-rule="evenodd" clip-rule="evenodd" d="M22.9131 41.7117C24.2939 41.7117 24.6297 42.658 24.6298 43.5556V45.2425C24.6298 45.6371 24.6496 46.0224 24.7088 46.3282H23.9689L23.8996 45.756H23.8697C23.6132 46.111 23.1301 46.4264 22.4892 46.4265C21.5718 46.4265 21.1077 45.7856 21.1077 45.1346C21.1077 44.0396 22.0744 43.4475 23.8206 43.4573V43.3687C23.8206 42.9938 23.7219 42.3225 22.7946 42.3225C22.3704 42.3225 21.9359 42.4515 21.6202 42.6587L21.4333 42.1153C21.8082 41.8688 22.3509 41.7117 22.9131 41.7117ZM23.8504 44.02C22.9529 44.0002 21.9365 44.1577 21.9362 45.0354C21.9362 45.5681 22.2914 45.8147 22.7156 45.8148C23.3075 45.8148 23.6728 45.4403 23.8109 45.0556C23.8405 44.9768 23.86 44.8782 23.8601 44.7993V44.02H23.8504Z" fill="#ADACAC"/>
<path d="M35.126 41.7011C35.5797 41.7011 35.9841 41.8296 36.2406 41.9776L36.0335 42.5797C35.856 42.4712 35.5307 42.3129 35.1067 42.3128C34.6233 42.3128 34.3466 42.5892 34.3466 42.9246C34.3466 43.2995 34.6131 43.4674 35.205 43.6943C35.9842 43.9903 36.389 44.3848 36.389 45.0556C36.3889 45.8447 35.7771 46.4071 34.7021 46.4072C34.2088 46.4072 33.7451 46.2883 33.4294 46.1009L33.6366 45.4795C33.8832 45.6373 34.3071 45.8051 34.7213 45.8051C35.323 45.8051 35.5999 45.5094 35.5999 45.1346C35.5999 44.74 35.3626 44.533 34.7608 44.3061C33.9519 44.02 33.5672 43.5654 33.5672 43.0229C33.5674 42.293 34.1594 41.7011 35.126 41.7011Z" fill="#ADACAC"/>
<path d="M30.9429 41.7117C31.5447 41.7117 32.4226 42.1058 32.4227 43.6741V46.3379H31.624V43.783C31.624 42.9148 31.3081 42.3918 30.6472 42.3918C30.1837 42.3919 29.8191 42.7371 29.6809 43.1414C29.6415 43.2498 29.6116 43.4078 29.6115 43.5556V46.3475H28.8119V43.6452C28.8119 42.9251 28.4963 42.4015 27.8649 42.4015C27.3522 42.4017 26.9778 42.8161 26.8495 43.2204C26.8002 43.3387 26.7801 43.4869 26.7801 43.625V46.3475H25.9815V43.0527L25.9709 43.0335C25.9709 42.5698 25.9708 42.1848 25.9314 41.8099H26.652L26.6915 42.5402H26.7213C26.9778 42.1062 27.3917 41.7117 28.1414 41.7117C28.753 41.7117 29.2264 42.0865 29.4237 42.6192H29.4439C29.582 42.3627 29.7593 42.1747 29.9468 42.0267C30.2131 41.8196 30.5189 41.7117 30.9429 41.7117Z" fill="#ADACAC"/>
<path d="M7.22714 41.7117C7.31588 41.7117 7.38527 41.711 7.46414 41.7406V42.52C7.38524 42.5003 7.29611 42.4911 7.18765 42.4911C6.60581 42.4912 6.20102 42.9246 6.08264 43.546C6.06291 43.6545 6.0441 43.7932 6.0441 43.9313V46.3379H5.23485V43.2309L5.22522 43.2204C5.22522 42.6878 5.22517 42.2341 5.18572 41.8099H5.90537L5.93524 42.6982H5.97474C6.18187 42.0965 6.67482 41.7118 7.22714 41.7117Z" fill="#ADACAC"/>
<path d="M20.4661 41.7117C20.5548 41.7117 20.6242 41.7111 20.703 41.7406V42.52C20.6242 42.5003 20.535 42.4911 20.4266 42.4911C19.8448 42.4913 19.4409 42.9248 19.3225 43.546C19.3028 43.6545 19.283 43.7932 19.283 43.9313V46.3379H18.4738V43.2309L18.4641 43.2204C18.4641 42.6878 18.4641 42.2341 18.4246 41.8099H19.1443L19.1741 42.6982H19.2136C19.4208 42.0966 19.9138 41.7119 20.4661 41.7117Z" fill="#ADACAC"/>
<path d="M12.2984 35.1905C12.2985 37.1141 13.1465 37.9226 14.2907 37.9227C15.5633 37.9227 16.3726 37.0845 16.3726 35.1905V30.1202H17.4872V35.1211C17.4872 37.7551 16.0962 38.8302 14.2416 38.8302C12.4856 38.8302 11.1636 37.824 11.1636 35.1703V30.1202H12.2984V35.1905Z" fill="#ADACAC"/>
<path fill-rule="evenodd" clip-rule="evenodd" d="M28.8716 29.9814C31.1701 29.9815 32.729 31.7773 32.729 34.3225L32.7233 34.5845C32.616 37.3583 30.8651 38.8301 28.7435 38.8302C26.5535 38.8302 24.8862 37.0748 24.8861 34.4805C24.8861 31.7577 26.5731 29.9814 28.8716 29.9814ZM28.8321 30.8793C26.9874 30.8793 26.0797 32.5664 26.0797 34.4506C26.0798 36.2853 27.0759 37.9224 28.8119 37.9227C30.5481 37.9227 31.5642 36.3053 31.5643 34.362C31.5643 32.6553 30.6768 30.8794 28.8321 30.8793Z" fill="#ADACAC"/>
<path d="M24.7975 31.0566H22.1732V38.6924H21.0585V31.0566H18.4535V30.1202H24.7975V31.0566Z" fill="#ADACAC"/>
<path fill-rule="evenodd" clip-rule="evenodd" d="M10.2859 38.6828H9.1019L8.18475 35.9891H5.14622L4.25798 38.6828H3.11347L6.02387 30.1096H7.35528L10.2859 38.6828ZM6.64526 31.0961C6.51702 31.609 6.37942 32.1224 6.21173 32.6452L5.37262 35.1211H7.9545L7.11924 32.6645C6.93186 32.1023 6.80335 31.5991 6.67512 31.0961H6.64526Z" fill="#ADACAC"/>
<path d="M18.083 1.30497C20.1342 1.30497 21.8616 1.7476 23.265 2.63286C24.6901 3.51812 25.7697 4.80282 26.5038 6.48698C27.2379 8.14954 27.605 10.19 27.605 12.6082C27.605 15.1776 27.1515 17.3476 26.2447 19.1181C25.3378 20.8886 24.0855 22.2273 22.4877 23.1342C20.8899 24.041 19.0223 24.4945 16.8847 24.4945C15.8267 24.4945 14.8011 24.3865 13.8079 24.1706C12.8362 23.9547 11.9834 23.62 11.2493 23.1666L12.48 20.6403C13.0845 21.029 13.7539 21.3097 14.488 21.4824C15.2437 21.6336 16.0318 21.7091 16.8523 21.7091C19.141 21.7091 20.9655 20.9966 22.3258 19.5715C23.6861 18.1249 24.3662 15.9873 24.3662 13.1588C24.3662 12.7054 24.3446 12.1656 24.3014 11.5394C24.2583 10.9133 24.1611 10.2979 24.0099 9.69334L25.0787 10.7945C24.7765 11.7877 24.269 12.6298 23.5565 13.3207C22.8656 13.9901 22.0235 14.4975 21.0303 14.843C20.0587 15.1668 18.9899 15.3288 17.8239 15.3288C16.3341 15.3288 15.0062 15.0481 13.8403 14.4867C12.6743 13.9253 11.7567 13.1372 11.0873 12.1224C10.418 11.086 10.0833 9.86608 10.0833 8.46262C10.0833 6.99438 10.4288 5.73127 11.1197 4.67327C11.8322 3.59369 12.7931 2.76241 14.0022 2.17943C15.2329 1.59646 16.5932 1.30497 18.083 1.30497ZM18.2126 3.92836C17.241 3.92836 16.3773 4.11189 15.6216 4.47895C14.8659 4.84601 14.2721 5.35341 13.8403 6.00116C13.43 6.64891 13.2249 7.42622 13.2249 8.33307C13.2249 9.67175 13.6891 10.7405 14.6176 11.5394C15.546 12.3167 16.7983 12.7054 18.3745 12.7054C19.4109 12.7054 20.3178 12.5111 21.0951 12.1224C21.894 11.7338 22.5093 11.2048 22.9412 10.5354C23.3946 9.86608 23.6213 9.12116 23.6213 8.30068C23.6213 7.50179 23.4162 6.77846 23.0059 6.13071C22.5957 5.48296 21.9911 4.95397 21.1922 4.54372C20.3933 4.13348 19.4001 3.92836 18.2126 3.92836Z" fill="#ADACAC"/>
</g>
<defs>
<clipPath id="clip0_32021_484">
<rect width="36.7059" height="48" fill="white"/>
</clipPath>
</defs>
</svg>
