<svg width="39" height="42" viewBox="0 0 39 42" fill="none" xmlns="http://www.w3.org/2000/svg">
<path fill-rule="evenodd" clip-rule="evenodd" d="M20.0245 16.74C24.9643 16.7403 28.9698 20.7467 28.97 25.6865C28.97 30.6264 24.9644 34.6327 20.0245 34.6329C15.0845 34.6329 11.0781 30.6265 11.0781 25.6865C11.0782 20.7466 15.0846 16.74 20.0245 16.74ZM24.4419 21.53C24.0302 21.1183 23.3572 21.1183 22.9456 21.53L20.1648 24.3108H19.9539L17.1722 21.53C16.7605 21.1185 16.0885 21.1185 15.6768 21.53C15.2652 21.9416 15.2652 22.6146 15.6768 23.0263L18.9803 26.3297V31.048C18.9803 31.6304 19.4518 32.1031 20.0441 32.1031C20.6365 32.1031 21.109 31.6304 21.109 31.048V26.3493L24.4321 23.0263H24.4419C24.8535 22.6146 24.8535 21.9416 24.4419 21.53Z" fill="#ADACAC"/>
<path fill-rule="evenodd" clip-rule="evenodd" d="M17.9154 0.715112C19.1705 -0.228693 20.8774 -0.238042 22.1425 0.685696L23.2878 1.51915C23.6993 1.82004 24.241 1.87959 24.7027 1.67898C26.018 1.12674 27.4847 1.38847 28.5189 2.36242C29.5629 3.33633 29.9146 4.78216 29.4328 6.13749L29.0092 7.34159C30.1092 7.16708 31.137 6.97074 32.0744 6.75719C33.3614 6.46396 34.4697 6.14193 35.3572 5.81391C36.2569 5.48135 36.8842 5.15863 37.2447 4.87946L38.1664 6.06983C37.6259 6.48838 36.8307 6.87505 35.8788 7.22686C34.9145 7.58327 33.7409 7.92154 32.4087 8.22505C31.46 8.4412 30.4256 8.63881 29.323 8.81534C32.3029 13.1683 34.4147 17.9792 35.6072 23.1469L37.0231 29.3017C37.7059 31.6511 38.3388 34.2115 38.8911 36.842C39.1219 37.9465 38.8401 39.0815 38.1272 39.9651C37.4043 40.8484 36.3399 41.3604 35.1954 41.3604H4.83307C3.68847 41.3604 2.62321 40.8486 1.90028 39.9651C1.34804 39.2923 1.05702 38.4584 1.05702 37.6049H1.06781C1.06781 37.354 1.09706 37.093 1.14723 36.842C1.68943 34.2114 2.32211 31.6507 3.02496 29.2409L4.43105 23.1469C5.60253 18.0704 7.66211 13.3302 10.5673 9.03694C6.88179 8.51345 3.255 7.60039 0 6.16396L0.607933 4.78532C3.82104 6.20329 7.43933 7.09587 11.1311 7.59456L10.6065 6.09728C10.1346 4.75191 10.4853 3.316 11.5194 2.33202C12.5535 1.35814 14.0096 1.08694 15.3248 1.62897L15.4454 1.67898C15.9173 1.86974 16.4595 1.80974 16.8711 1.49856L17.9154 0.715112ZM26.9805 9.14087C25.6394 9.30111 24.2254 9.42907 22.7622 9.50956C19.651 9.68066 16.2994 9.64926 12.9411 9.32031C9.84977 13.6368 7.67933 18.4414 6.4892 23.6185L5.0733 29.7733C4.37047 32.1831 3.74831 34.6833 3.21616 37.2637C3.11576 37.7456 3.23633 38.248 3.54758 38.6296C3.86888 39.0209 4.34099 39.2414 4.84287 39.2414H35.2062C35.7078 39.2413 36.1793 39.0207 36.5005 38.6296C36.8118 38.248 36.9424 37.7456 36.8319 37.2637C36.2998 34.6832 35.6772 32.1829 34.9944 29.8234L33.5589 23.6087C32.3515 18.3599 30.1321 13.4979 26.9805 9.14087ZM20.8982 2.37222C20.3861 1.99067 19.6924 2.00048 19.1803 2.38203L18.137 3.16548C17.1329 3.91852 15.7973 4.08864 14.6326 3.60672L14.512 3.55671C13.9698 3.33582 13.3974 3.43654 12.9656 3.83812C12.534 4.23965 12.4035 4.81173 12.594 5.36384L13.4775 7.85931C16.6085 8.14433 19.7423 8.16796 22.6798 8.00639C24.0624 7.93034 25.3978 7.81268 26.6647 7.66418L27.4541 5.42463C27.6549 4.8724 27.5142 4.28976 27.0824 3.88813C26.6777 3.51178 26.1405 3.39081 25.6283 3.5675L25.3096 3.69006C24.2162 4.0679 22.9838 3.89273 22.0425 3.20568L20.8982 2.37222Z" fill="#ADACAC"/>
</svg>
