<svg width="57" height="57" viewBox="0 0 57 57" fill="none" xmlns="http://www.w3.org/2000/svg">
<path d="M10.5219 7.30494C15.2935 3.2637 21.467 0.82666 28.2096 0.82666C43.3329 0.82666 55.5927 13.0865 55.5927 28.2098C55.5927 43.3331 43.3329 55.5929 28.2096 55.5929C13.0863 55.5929 0.826477 43.3331 0.826477 28.2098C0.826477 21.7262 3.07983 15.7689 6.84602 11.0783" stroke="#ADACAC" stroke-width="1.6529" stroke-miterlimit="10" stroke-linecap="round" stroke-linejoin="round"/>
<path d="M28.2097 49.9561C40.2199 49.9561 49.9561 40.2199 49.9561 28.2098C49.9561 16.1996 40.2199 6.46338 28.2097 6.46338C16.1995 6.46338 6.46332 16.1996 6.46332 28.2098C6.46332 40.2199 16.1995 49.9561 28.2097 49.9561Z" stroke="#ADACAC" stroke-width="1.6529" stroke-miterlimit="10" stroke-linecap="round" stroke-linejoin="round"/>
<path d="M30.7502 38.3233C30.6597 42.4142 29.5365 46.4158 27.4849 49.9562M27.4849 6.46338L26.6888 9.1153C25.8384 11.9477 25.5126 14.9116 25.7275 17.861M23.5711 37.4728C20.579 40.403 16.8797 42.5093 12.8328 43.5868M43.5869 12.8327L41.1487 14.145C38.5555 15.5406 36.2378 17.3963 34.3089 19.6216M18.0962 30.7502C14.0054 30.6597 10.0037 29.5364 6.46332 27.4849M49.9562 27.4849L47.3043 26.6888C44.3959 25.8155 41.3496 25.4957 38.3233 25.7457M19.1138 23.74C16.0976 20.7197 13.9311 16.9575 12.8327 12.8328M43.5869 43.5868L42.2746 41.1487C40.8997 38.594 39.0781 36.3064 36.8961 34.3944" stroke="#ADACAC" stroke-width="1.6529" stroke-miterlimit="10" stroke-linecap="round" stroke-linejoin="round"/>
<path d="M28.2096 38.3236C33.7953 38.3236 38.3233 33.7955 38.3233 28.2099C38.3233 22.6242 33.7953 18.0962 28.2096 18.0962C22.624 18.0962 18.0959 22.6242 18.0959 28.2099C18.0959 33.7955 22.624 38.3236 28.2096 38.3236Z" stroke="#ADACAC" stroke-width="1.6529" stroke-miterlimit="10" stroke-linecap="round" stroke-linejoin="round"/>
<path d="M32.5542 30.7506C31.6807 32.2411 30.0619 33.2419 28.2096 33.2419C25.4303 33.2419 23.1772 30.9889 23.1772 28.2096C23.1772 25.4303 25.4303 23.1772 28.2096 23.1772C30.4161 23.1772 32.291 24.5974 32.97 26.5735M27.1114 27.1114L29.3078 29.3078M29.3078 27.1114L27.1114 29.3078" stroke="#ADACAC" stroke-width="1.6529" stroke-miterlimit="10" stroke-linecap="round" stroke-linejoin="round"/>
</svg>
